<mxfile host="65bd71144e">
    <diagram id="GHatUojpGn1s9KGmeXaU" name="Page-1">
        <mxGraphModel dx="2685" dy="1093" grid="1" gridSize="10" guides="1" tooltips="1" connect="1" arrows="1" fold="1" page="1" pageScale="1" pageWidth="850" pageHeight="1100" background="#666666" math="0" shadow="0">
            <root>
                <mxCell id="0"/>
                <mxCell id="1" parent="0"/>
                <mxCell id="3" value="&lt;pre style=&quot;font-family: &amp;quot;jetbrains mono&amp;quot;, monospace;&quot;&gt;&lt;br&gt;&lt;/pre&gt;" style="html=1;glass=0;rounded=0;fillColor=none;labelBackgroundColor=none;fontColor=#FCFCFC;fillOpacity=100;" vertex="1" parent="1">
                    <mxGeometry x="-640" y="60" width="1080" height="870" as="geometry"/>
                </mxCell>
                <mxCell id="76" style="edgeStyle=none;curved=1;html=1;exitX=0.5;exitY=0.5;exitDx=0;exitDy=0;exitPerimeter=0;entryX=0;entryY=0.5;entryDx=0;entryDy=0;fontFamily=Helvetica;fontSize=12;fontColor=#FCFCFC;startArrow=none;startFill=0;labelBackgroundColor=none;fillOpacity=100;" edge="1" parent="1" source="2" target="5">
                    <mxGeometry relative="1" as="geometry"/>
                </mxCell>
                <mxCell id="77" style="edgeStyle=none;curved=1;html=1;exitX=0.5;exitY=0.5;exitDx=0;exitDy=0;exitPerimeter=0;entryX=0;entryY=0.5;entryDx=0;entryDy=0;fontFamily=Helvetica;fontSize=12;fontColor=#FCFCFC;startArrow=none;startFill=0;labelBackgroundColor=none;fillOpacity=100;" edge="1" parent="1" source="2" target="6">
                    <mxGeometry relative="1" as="geometry"/>
                </mxCell>
                <mxCell id="78" style="edgeStyle=none;curved=1;html=1;exitX=0.5;exitY=0.5;exitDx=0;exitDy=0;exitPerimeter=0;fontFamily=Helvetica;fontSize=12;fontColor=#FCFCFC;startArrow=none;startFill=0;labelBackgroundColor=none;fillOpacity=100;" edge="1" parent="1" source="2" target="8">
                    <mxGeometry relative="1" as="geometry"/>
                </mxCell>
                <mxCell id="79" style="edgeStyle=none;curved=1;html=1;exitX=0.5;exitY=0.5;exitDx=0;exitDy=0;exitPerimeter=0;entryX=0.5;entryY=1;entryDx=0;entryDy=0;fontFamily=Helvetica;fontSize=12;fontColor=#FCFCFC;startArrow=none;startFill=0;labelBackgroundColor=none;fillOpacity=100;" edge="1" parent="1" source="2" target="9">
                    <mxGeometry relative="1" as="geometry">
                        <Array as="points">
                            <mxPoint x="-370" y="590"/>
                        </Array>
                    </mxGeometry>
                </mxCell>
                <mxCell id="80" style="edgeStyle=none;curved=1;html=1;exitX=0.5;exitY=0.5;exitDx=0;exitDy=0;exitPerimeter=0;entryX=1;entryY=1;entryDx=0;entryDy=0;fontFamily=Helvetica;fontSize=12;fontColor=#FCFCFC;startArrow=none;startFill=0;labelBackgroundColor=none;fillOpacity=100;" edge="1" parent="1" source="2" target="10">
                    <mxGeometry relative="1" as="geometry">
                        <Array as="points">
                            <mxPoint x="400" y="660"/>
                        </Array>
                    </mxGeometry>
                </mxCell>
                <mxCell id="81" style="edgeStyle=none;curved=1;html=1;exitX=0.5;exitY=0.5;exitDx=0;exitDy=0;exitPerimeter=0;entryX=1;entryY=1;entryDx=0;entryDy=0;fontFamily=Helvetica;fontSize=12;fontColor=#FCFCFC;startArrow=none;startFill=0;labelBackgroundColor=none;fillOpacity=100;" edge="1" parent="1" source="2" target="7">
                    <mxGeometry relative="1" as="geometry">
                        <Array as="points">
                            <mxPoint x="540" y="750"/>
                        </Array>
                    </mxGeometry>
                </mxCell>
                <mxCell id="86" style="edgeStyle=none;curved=1;html=1;exitX=0.5;exitY=0.5;exitDx=0;exitDy=0;exitPerimeter=0;entryX=0;entryY=0;entryDx=0;entryDy=0;fontFamily=Helvetica;fontSize=12;fontColor=#FCFCFC;startArrow=none;startFill=0;labelBackgroundColor=none;fillOpacity=100;" edge="1" parent="1" source="2" target="11">
                    <mxGeometry relative="1" as="geometry"/>
                </mxCell>
                <mxCell id="87" style="edgeStyle=none;curved=1;html=1;exitX=0.5;exitY=0.5;exitDx=0;exitDy=0;exitPerimeter=0;entryX=0.5;entryY=0;entryDx=0;entryDy=0;fontFamily=Helvetica;fontSize=12;fontColor=#FCFCFC;startArrow=none;startFill=0;labelBackgroundColor=none;fillOpacity=100;" edge="1" parent="1" source="2" target="45">
                    <mxGeometry relative="1" as="geometry"/>
                </mxCell>
                <mxCell id="2" value="User (Administrator)" style="shape=umlActor;verticalLabelPosition=bottom;verticalAlign=top;html=1;labelBackgroundColor=none;fontColor=#FCFCFC;fillOpacity=100;fillColor=none;" vertex="1" parent="1">
                    <mxGeometry x="-730" y="447.5" width="60" height="130" as="geometry"/>
                </mxCell>
                <mxCell id="5" value="&lt;pre style=&quot;&quot;&gt;&lt;font face=&quot;Helvetica&quot;&gt;Εισαγωγή Λογαριασμού&lt;/font&gt;&lt;span style=&quot;font-family: &amp;quot;jetbrains mono&amp;quot;, monospace;&quot;&gt;&lt;br&gt;&lt;/span&gt;&lt;/pre&gt;" style="ellipse;whiteSpace=wrap;html=1;labelBackgroundColor=none;fontColor=#FCFCFC;fillOpacity=100;fillColor=none;" vertex="1" parent="1">
                    <mxGeometry x="-470" y="320" width="140" height="70" as="geometry"/>
                </mxCell>
                <mxCell id="7" value="&lt;pre style=&quot;&quot;&gt;&lt;font face=&quot;Helvetica&quot;&gt;   Ενημέρωση Λογαριασμού&lt;/font&gt;&lt;span style=&quot;font-family: &amp;quot;jetbrains mono&amp;quot;, monospace;&quot;&gt;&lt;br&gt;&lt;/span&gt;&lt;/pre&gt;" style="ellipse;whiteSpace=wrap;html=1;fontColor=#FCFCFC;labelBackgroundColor=none;fillOpacity=100;fillColor=none;" vertex="1" parent="1">
                    <mxGeometry x="30" y="150" width="160" height="70" as="geometry"/>
                </mxCell>
                <mxCell id="9" value="Κατάθεση" style="ellipse;whiteSpace=wrap;html=1;fontFamily=Helvetica;fontSize=12;fontColor=#FCFCFC;strokeColor=default;fillColor=none;labelBackgroundColor=none;fillOpacity=100;" vertex="1" parent="1">
                    <mxGeometry x="-90" y="482.5" width="100" height="60" as="geometry"/>
                </mxCell>
                <mxCell id="11" value="&lt;pre style=&quot;&quot;&gt;&lt;font face=&quot;Helvetica&quot;&gt;Εκτύπωση Λογαριασμών&lt;/font&gt;&lt;/pre&gt;" style="ellipse;whiteSpace=wrap;html=1;fontFamily=Helvetica;fontSize=12;fontColor=#FCFCFC;strokeColor=default;fillColor=none;labelBackgroundColor=none;fillOpacity=100;" vertex="1" parent="1">
                    <mxGeometry x="-490" y="820" width="170" height="60" as="geometry"/>
                </mxCell>
                <mxCell id="70" style="edgeStyle=none;curved=1;html=1;exitX=0.5;exitY=0.5;exitDx=0;exitDy=0;exitPerimeter=0;fontFamily=Helvetica;fontSize=12;fontColor=#FCFCFC;startArrow=none;startFill=0;labelBackgroundColor=none;fillOpacity=100;" edge="1" parent="1" source="20" target="10">
                    <mxGeometry relative="1" as="geometry"/>
                </mxCell>
                <mxCell id="71" style="edgeStyle=none;curved=1;html=1;exitX=0.5;exitY=0.5;exitDx=0;exitDy=0;exitPerimeter=0;entryX=1;entryY=1;entryDx=0;entryDy=0;fontFamily=Helvetica;fontSize=12;fontColor=#FCFCFC;startArrow=none;startFill=0;labelBackgroundColor=none;fillOpacity=100;" edge="1" parent="1" source="20" target="9">
                    <mxGeometry relative="1" as="geometry">
                        <Array as="points">
                            <mxPoint x="170" y="560"/>
                        </Array>
                    </mxGeometry>
                </mxCell>
                <mxCell id="72" style="edgeStyle=none;curved=1;html=1;exitX=0.5;exitY=0.5;exitDx=0;exitDy=0;exitPerimeter=0;entryX=1;entryY=1;entryDx=0;entryDy=0;fontFamily=Helvetica;fontSize=12;fontColor=#FCFCFC;startArrow=none;startFill=0;labelBackgroundColor=none;fillOpacity=100;" edge="1" parent="1" source="20" target="8">
                    <mxGeometry relative="1" as="geometry">
                        <Array as="points">
                            <mxPoint x="-50" y="660"/>
                        </Array>
                    </mxGeometry>
                </mxCell>
                <mxCell id="74" style="edgeStyle=none;curved=1;html=1;exitX=0.5;exitY=0.5;exitDx=0;exitDy=0;exitPerimeter=0;entryX=0.5;entryY=1;entryDx=0;entryDy=0;fontFamily=Helvetica;fontSize=12;fontColor=#FCFCFC;startArrow=none;startFill=0;labelBackgroundColor=none;fillOpacity=100;" edge="1" parent="1" source="20" target="6">
                    <mxGeometry relative="1" as="geometry">
                        <Array as="points">
                            <mxPoint x="-230" y="730"/>
                        </Array>
                    </mxGeometry>
                </mxCell>
                <mxCell id="84" style="edgeStyle=none;curved=1;html=1;exitX=0.5;exitY=0.5;exitDx=0;exitDy=0;exitPerimeter=0;entryX=1;entryY=0.5;entryDx=0;entryDy=0;fontFamily=Helvetica;fontSize=12;fontColor=#FCFCFC;startArrow=none;startFill=0;labelBackgroundColor=none;fillOpacity=100;" edge="1" parent="1" source="20" target="83">
                    <mxGeometry relative="1" as="geometry">
                        <Array as="points">
                            <mxPoint x="360" y="660"/>
                        </Array>
                    </mxGeometry>
                </mxCell>
                <mxCell id="85" style="edgeStyle=none;curved=1;html=1;exitX=0.5;exitY=0.5;exitDx=0;exitDy=0;exitPerimeter=0;entryX=1;entryY=0.5;entryDx=0;entryDy=0;fontFamily=Helvetica;fontSize=12;fontColor=#FCFCFC;startArrow=none;startFill=0;labelBackgroundColor=none;fillOpacity=100;" edge="1" parent="1" source="20" target="11">
                    <mxGeometry relative="1" as="geometry">
                        <Array as="points">
                            <mxPoint x="500" y="610"/>
                        </Array>
                    </mxGeometry>
                </mxCell>
                <mxCell id="117" style="edgeStyle=orthogonalEdgeStyle;html=1;exitX=0.5;exitY=0.5;exitDx=0;exitDy=0;exitPerimeter=0;entryX=1;entryY=0.5;entryDx=0;entryDy=0;fontFamily=Helvetica;fontSize=12;fontColor=#FCFCFC;startArrow=none;startFill=0;endArrow=classic;endFill=1;curved=1;labelBackgroundColor=none;fillOpacity=100;" edge="1" parent="1" source="20" target="7">
                    <mxGeometry relative="1" as="geometry">
                        <Array as="points">
                            <mxPoint x="485" y="460"/>
                            <mxPoint x="320" y="460"/>
                            <mxPoint x="320" y="185"/>
                        </Array>
                    </mxGeometry>
                </mxCell>
                <mxCell id="20" value="BankDB" style="shape=umlActor;verticalLabelPosition=bottom;verticalAlign=top;html=1;fontFamily=Helvetica;fontSize=12;fontColor=#FCFCFC;strokeColor=default;fillColor=none;labelBackgroundColor=none;fillOpacity=100;" vertex="1" parent="1">
                    <mxGeometry x="450" y="440" width="70" height="120" as="geometry"/>
                </mxCell>
                <mxCell id="29" value="Error&amp;nbsp;&lt;br&gt;Message" style="ellipse;whiteSpace=wrap;html=1;fontFamily=Helvetica;fontSize=12;fontColor=#FCFCFC;strokeColor=default;fillColor=none;labelBackgroundColor=none;fillOpacity=100;" vertex="1" parent="1">
                    <mxGeometry x="-210" y="240" width="140" height="70" as="geometry"/>
                </mxCell>
                <mxCell id="45" value="Έξοδος" style="ellipse;whiteSpace=wrap;html=1;fontFamily=Helvetica;fontSize=12;fontColor=#FCFCFC;strokeColor=default;fillColor=none;labelBackgroundColor=none;fillOpacity=100;" vertex="1" parent="1">
                    <mxGeometry x="-635" y="810" width="140" height="70" as="geometry"/>
                </mxCell>
                <mxCell id="8" value="&lt;pre style=&quot;&quot;&gt;&lt;font face=&quot;Helvetica&quot;&gt;Αναζήτηση Λογαριασμιού&lt;/font&gt;&lt;/pre&gt;" style="ellipse;whiteSpace=wrap;html=1;fontFamily=Helvetica;fontSize=12;fontColor=#FCFCFC;strokeColor=default;fillColor=none;labelBackgroundColor=none;fillOpacity=100;" vertex="1" parent="1">
                    <mxGeometry x="-280" y="477.5" width="170" height="60" as="geometry"/>
                </mxCell>
                <mxCell id="6" value="&lt;pre style=&quot;&quot;&gt;&lt;font face=&quot;Helvetica&quot;&gt;Διαγραφή Λογαριασμού&lt;/font&gt;&lt;span style=&quot;font-family: &amp;quot;jetbrains mono&amp;quot;, monospace;&quot;&gt;&lt;br&gt;&lt;/span&gt;&lt;/pre&gt;" style="ellipse;whiteSpace=wrap;html=1;fontColor=#FCFCFC;labelBackgroundColor=none;fillOpacity=100;fillColor=none;" vertex="1" parent="1">
                    <mxGeometry x="-430" y="422.5" width="150" height="60" as="geometry"/>
                </mxCell>
                <mxCell id="10" value="Ανάληψη" style="ellipse;whiteSpace=wrap;html=1;fontFamily=Helvetica;fontSize=12;fontColor=#FCFCFC;strokeColor=default;fillColor=none;labelBackgroundColor=none;fillOpacity=100;" vertex="1" parent="1">
                    <mxGeometry x="50" y="340" width="90" height="55" as="geometry"/>
                </mxCell>
                <mxCell id="62" value="Extends" style="endArrow=block;endSize=16;endFill=0;html=1;dashed=1;fontFamily=Helvetica;fontSize=12;fontColor=#FCFCFC;entryX=1;entryY=0.5;entryDx=0;entryDy=0;exitX=0;exitY=0.5;exitDx=0;exitDy=0;labelBackgroundColor=none;fillOpacity=100;" edge="1" parent="1" source="29" target="5">
                    <mxGeometry width="160" relative="1" as="geometry">
                        <mxPoint x="-210" y="470" as="sourcePoint"/>
                        <mxPoint x="-140" y="445" as="targetPoint"/>
                    </mxGeometry>
                </mxCell>
                <mxCell id="63" value="Extends" style="endArrow=block;endSize=16;endFill=0;html=1;dashed=1;fontFamily=Helvetica;fontSize=12;fontColor=#FCFCFC;entryX=0.5;entryY=0;entryDx=0;entryDy=0;exitX=0;exitY=1;exitDx=0;exitDy=0;labelBackgroundColor=none;fillOpacity=100;" edge="1" parent="1" source="29" target="6">
                    <mxGeometry width="160" relative="1" as="geometry">
                        <mxPoint x="-190" y="405" as="sourcePoint"/>
                        <mxPoint x="-340" y="415" as="targetPoint"/>
                    </mxGeometry>
                </mxCell>
                <mxCell id="64" value="Extends" style="endArrow=block;endSize=16;endFill=0;html=1;dashed=1;fontFamily=Helvetica;fontSize=12;fontColor=#FCFCFC;exitX=0.5;exitY=1;exitDx=0;exitDy=0;labelBackgroundColor=none;fillOpacity=100;" edge="1" parent="1" source="29" target="8">
                    <mxGeometry width="160" relative="1" as="geometry">
                        <mxPoint x="-169.49747468305827" y="429.74873734152914" as="sourcePoint"/>
                        <mxPoint x="-315" y="480" as="targetPoint"/>
                    </mxGeometry>
                </mxCell>
                <mxCell id="66" value="Extends" style="endArrow=block;endSize=16;endFill=0;html=1;dashed=1;fontFamily=Helvetica;fontSize=12;fontColor=#FCFCFC;exitX=0.5;exitY=1;exitDx=0;exitDy=0;entryX=0;entryY=0;entryDx=0;entryDy=0;labelBackgroundColor=none;fillOpacity=100;" edge="1" parent="1" source="29" target="9">
                    <mxGeometry width="160" relative="1" as="geometry">
                        <mxPoint x="-120" y="440" as="sourcePoint"/>
                        <mxPoint x="-145.68150743290016" y="522.6808237852802" as="targetPoint"/>
                    </mxGeometry>
                </mxCell>
                <mxCell id="67" value="Extends" style="endArrow=block;endSize=16;endFill=0;html=1;dashed=1;fontFamily=Helvetica;fontSize=12;fontColor=#FCFCFC;exitX=1;exitY=1;exitDx=0;exitDy=0;entryX=0;entryY=0.5;entryDx=0;entryDy=0;labelBackgroundColor=none;fillOpacity=100;" edge="1" parent="1" source="29" target="10">
                    <mxGeometry width="160" relative="1" as="geometry">
                        <mxPoint x="-70" y="410" as="sourcePoint"/>
                        <mxPoint x="24.644660940672793" y="488.78679656440386" as="targetPoint"/>
                    </mxGeometry>
                </mxCell>
                <mxCell id="68" value="Extends" style="endArrow=block;endSize=16;endFill=0;html=1;dashed=1;fontFamily=Helvetica;fontSize=12;fontColor=#FCFCFC;exitX=1;exitY=0.5;exitDx=0;exitDy=0;labelBackgroundColor=none;fillOpacity=100;" edge="1" parent="1" source="29" target="7">
                    <mxGeometry width="160" relative="1" as="geometry">
                        <mxPoint x="-70.50252531694173" y="429.74873734152914" as="sourcePoint"/>
                        <mxPoint x="50" y="482.5" as="targetPoint"/>
                    </mxGeometry>
                </mxCell>
                <mxCell id="82" value="Includes" style="endArrow=open;endSize=12;dashed=1;html=1;fontFamily=Helvetica;fontSize=12;fontColor=#FCFCFC;curved=1;exitX=0;exitY=1;exitDx=0;exitDy=0;entryX=0;entryY=0.5;entryDx=0;entryDy=0;labelBackgroundColor=none;fillOpacity=100;" edge="1" parent="1" source="5" target="83">
                    <mxGeometry x="0.0122" y="-1" width="160" relative="1" as="geometry">
                        <mxPoint x="-310" y="530" as="sourcePoint"/>
                        <mxPoint x="-490" y="580" as="targetPoint"/>
                        <Array as="points">
                            <mxPoint x="-510" y="730"/>
                        </Array>
                        <mxPoint as="offset"/>
                    </mxGeometry>
                </mxCell>
                <mxCell id="83" value="Τύπος Λογαριασμού" style="ellipse;whiteSpace=wrap;html=1;fontFamily=Helvetica;fontSize=12;fontColor=#FCFCFC;strokeColor=default;fillColor=none;labelBackgroundColor=none;fillOpacity=100;" vertex="1" parent="1">
                    <mxGeometry x="-385" y="640" width="140" height="70" as="geometry"/>
                </mxCell>
                <mxCell id="89" value="SSN verfication" style="ellipse;whiteSpace=wrap;html=1;fontFamily=Helvetica;fontSize=12;fontColor=#FCFCFC;strokeColor=default;fillColor=none;labelBackgroundColor=none;fillOpacity=100;" vertex="1" parent="1">
                    <mxGeometry x="20" y="450" width="80" height="40" as="geometry"/>
                </mxCell>
                <mxCell id="90" value="Extends" style="endArrow=block;endSize=16;endFill=0;html=1;dashed=1;fontFamily=Helvetica;fontSize=12;fontColor=#FCFCFC;exitX=1;exitY=1;exitDx=0;exitDy=0;entryX=0;entryY=0;entryDx=0;entryDy=0;labelBackgroundColor=none;fillOpacity=100;" edge="1" parent="1" source="29" target="89">
                    <mxGeometry width="160" relative="1" as="geometry">
                        <mxPoint x="-70.50252531694332" y="429.74873734152834" as="sourcePoint"/>
                        <mxPoint x="70" y="423" as="targetPoint"/>
                    </mxGeometry>
                </mxCell>
                <mxCell id="92" value="Includes" style="endArrow=open;endSize=12;dashed=1;html=1;fontFamily=Helvetica;fontSize=12;fontColor=#FCFCFC;curved=1;exitX=0.5;exitY=1;exitDx=0;exitDy=0;entryX=1;entryY=0.5;entryDx=0;entryDy=0;labelBackgroundColor=none;fillOpacity=100;" edge="1" parent="1" source="10" target="89">
                    <mxGeometry width="160" relative="1" as="geometry">
                        <mxPoint y="560" as="sourcePoint"/>
                        <mxPoint x="160" y="560" as="targetPoint"/>
                        <Array as="points">
                            <mxPoint x="150" y="480"/>
                        </Array>
                    </mxGeometry>
                </mxCell>
                <mxCell id="93" value="Includes" style="endArrow=open;endSize=12;dashed=1;html=1;fontFamily=Helvetica;fontSize=12;fontColor=#FCFCFC;curved=1;exitX=1;exitY=0.5;exitDx=0;exitDy=0;entryX=1;entryY=1;entryDx=0;entryDy=0;labelBackgroundColor=none;fillOpacity=100;" edge="1" parent="1" source="9" target="89">
                    <mxGeometry width="160" relative="1" as="geometry">
                        <mxPoint x="104.99999999999977" y="405" as="sourcePoint"/>
                        <mxPoint x="109.99999999999977" y="480" as="targetPoint"/>
                        <Array as="points">
                            <mxPoint x="80" y="520"/>
                        </Array>
                    </mxGeometry>
                </mxCell>
                <mxCell id="98" value="Account" style="ellipse;whiteSpace=wrap;html=1;fontFamily=Helvetica;fontSize=12;fontColor=#FCFCFC;strokeColor=default;fillColor=none;labelBackgroundColor=none;fillOpacity=100;" vertex="1" parent="1">
                    <mxGeometry x="50" y="270" width="50" height="30" as="geometry"/>
                </mxCell>
                <mxCell id="99" value="Overdraft" style="ellipse;whiteSpace=wrap;html=1;fontFamily=Helvetica;fontSize=12;fontColor=#FCFCFC;strokeColor=default;fillColor=none;labelBackgroundColor=none;fillOpacity=100;" vertex="1" parent="1">
                    <mxGeometry x="130" y="280" width="60" height="30" as="geometry"/>
                </mxCell>
                <mxCell id="110" value="" style="edgeStyle=orthogonalEdgeStyle;endArrow=classic;html=1;fontFamily=Helvetica;fontSize=12;fontColor=#FCFCFC;exitX=0.5;exitY=1;exitDx=0;exitDy=0;entryX=0.5;entryY=0;entryDx=0;entryDy=0;labelBackgroundColor=none;fillOpacity=100;" edge="1" parent="1" source="98" target="10">
                    <mxGeometry width="50" height="50" relative="1" as="geometry">
                        <mxPoint x="70" y="350" as="sourcePoint"/>
                        <mxPoint x="120" y="300" as="targetPoint"/>
                    </mxGeometry>
                </mxCell>
                <mxCell id="111" value="" style="edgeStyle=orthogonalEdgeStyle;endArrow=none;html=1;fontFamily=Helvetica;fontSize=12;fontColor=#FCFCFC;exitX=0;exitY=1;exitDx=0;exitDy=0;entryX=0.5;entryY=0;entryDx=0;entryDy=0;endFill=0;labelBackgroundColor=none;fillOpacity=100;" edge="1" parent="1" source="99" target="10">
                    <mxGeometry width="50" height="50" relative="1" as="geometry">
                        <mxPoint x="85" y="310" as="sourcePoint"/>
                        <mxPoint x="105" y="350" as="targetPoint"/>
                        <Array as="points">
                            <mxPoint x="95" y="306"/>
                        </Array>
                    </mxGeometry>
                </mxCell>
                <mxCell id="114" value="&lt;h2&gt;Account Administration App&lt;/h2&gt;" style="text;html=1;resizable=0;autosize=1;align=center;verticalAlign=middle;points=[];fillColor=none;strokeColor=none;rounded=0;fontFamily=Helvetica;fontSize=12;fontColor=#FCFCFC;labelBackgroundColor=none;fillOpacity=100;" vertex="1" parent="1">
                    <mxGeometry x="-240" y="80" width="260" height="50" as="geometry"/>
                </mxCell>
            </root>
        </mxGraphModel>
    </diagram>
</mxfile>